<svg width="1600" height="720" viewBox="0 0 1600 720" fill="none" xmlns="http://www.w3.org/2000/svg">
  <rect width="1600" height="720" fill="url(#bg)"/>
  <circle cx="1294" cy="110" r="170" fill="#C3E8FF" opacity="0.35"/>
  <circle cx="210" cy="150" r="110" fill="#9FD2F5" opacity="0.28"/>
  <path d="M0 523C206 463 388 463 596 512C815 564 1037 629 1600 541V720H0V523Z" fill="#163759" opacity="0.95"/>
  <rect x="96" y="102" width="338" height="52" rx="26" fill="#BDE6FF"/>
  <text x="134" y="136" fill="#173A5A" font-family="Tahoma, Arial, sans-serif" font-size="28" font-weight="700">PAKISTAN AIR FORCE</text>
  <text x="96" y="242" fill="white" font-family="Tahoma, Arial, sans-serif" font-size="72" font-weight="700">Air Force Careers</text>
  <text x="96" y="318" fill="#E0F4FF" font-family="Tahoma, Arial, sans-serif" font-size="32">Aviation, engineering, admin, and technical</text>
  <text x="96" y="366" fill="#E0F4FF" font-family="Tahoma, Arial, sans-serif" font-size="32">roles in national service</text>
  <path d="M1086 234L1327 320L1160 344L1032 470L1068 335L930 286L1081 286L1086 234Z" fill="#F6FAFF"/>
  <path d="M1128 418C1162 397 1204 391 1243 403" stroke="#BDE6FF" stroke-width="10" stroke-linecap="round"/>
  <defs>
    <linearGradient id="bg" x1="800" y1="0" x2="800" y2="720" gradientUnits="userSpaceOnUse">
      <stop stop-color="#3C83B6"/>
      <stop offset="1" stop-color="#1F4E78"/>
    </linearGradient>
  </defs>
</svg>
